<?xml version="1.0" encoding="iso-8859-1"?>
<!-- Generator: Adobe Illustrator 19.0.0, SVG Export Plug-In . SVG Version: 6.00 Build 0)  -->
<svg version="1.1" id="Capa_1" xmlns="http://www.w3.org/2000/svg" xmlns:xlink="http://www.w3.org/1999/xlink" x="0px" y="0px"
	 viewBox="0 0 512 512" style="enable-background:new 0 0 512 512;" xml:space="preserve">
<g>
	<g>
		<path d="M472.345,234.548c-12.839-40.836-39.751-77.572-76.5-104.165c-28.453-20.59-61.049-34.287-95.918-40.519
			C303.798,82.768,306,74.637,306,66c0-27.57-22.43-50-50-50s-50,22.43-50,50h30c0-11.028,8.972-20,20-20s20,8.972,20,20
			s-8.972,20-20,20c-51.363,0-99.721,15.348-139.845,44.383c-36.748,26.593-63.661,63.329-76.5,104.165
			C16.197,242.975,0,265.378,0,291s16.197,48.025,39.655,56.452c12.839,40.836,39.751,77.573,76.5,104.165
			C156.279,480.653,204.637,496,256,496c51.363,0,99.721-15.347,139.845-44.383c36.748-26.593,63.661-63.329,76.5-104.165
			C495.803,339.025,512,316.622,512,291S495.803,242.975,472.345,234.548z M457.527,320.481l-9.343,1.736l-2.422,9.189
			C424.876,410.653,346.844,466,256,466S87.124,410.653,66.238,331.406l-2.422-9.189l-9.343-1.736C40.292,317.847,30,305.448,30,291
			s10.292-26.847,24.473-29.481l9.343-1.736l2.422-9.189C87.124,171.347,165.156,116,256,116s168.876,55.347,189.762,134.594
			l2.422,9.189l9.343,1.736C471.708,264.153,482,276.552,482,291S471.708,317.847,457.527,320.481z"/>
	</g>
</g>
<g>
	<g>
		<path d="M319.922,331.106C302.604,321.365,279.902,316,256,316c-23.902,0-46.604,5.365-63.922,15.106
			C172.037,342.379,161,358.323,161,376s11.037,33.621,31.078,44.894C209.396,430.635,232.098,436,256,436
			s46.604-5.365,63.922-15.106C339.963,409.621,351,393.677,351,376S339.963,342.379,319.922,331.106z M305.214,394.746
			C292.5,401.898,274.562,406,256,406s-36.5-4.102-49.214-11.254C196.753,389.103,191,382.271,191,376s5.753-13.103,15.786-18.746
			C219.5,350.102,237.438,346,256,346c3.363,0,6.705,0.139,10,0.402V381h30v-28.042c3.292,1.277,6.388,2.706,9.214,4.296
			C315.247,362.897,321,369.729,321,376S315.247,389.103,305.214,394.746z"/>
	</g>
</g>
<g>
	<g>
		<polygon points="152.702,204.489 131.298,225.51 161.243,256 117,256 117,286 211,286 211,263.848 		"/>
	</g>
</g>
<g>
	<g>
		<polygon points="350.757,256 380.702,225.511 359.298,204.489 301,263.847 301,286 395,286 395,256 		"/>
	</g>
</g>
<g>
</g>
<g>
</g>
<g>
</g>
<g>
</g>
<g>
</g>
<g>
</g>
<g>
</g>
<g>
</g>
<g>
</g>
<g>
</g>
<g>
</g>
<g>
</g>
<g>
</g>
<g>
</g>
<g>
</g>
</svg>
