<?xml version="1.0" encoding="iso-8859-1"?>
<!-- Generator: Adobe Illustrator 19.0.0, SVG Export Plug-In . SVG Version: 6.00 Build 0)  -->
<svg version="1.1" id="Capa_1" xmlns="http://www.w3.org/2000/svg" xmlns:xlink="http://www.w3.org/1999/xlink" x="0px" y="0px"
	 viewBox="0 0 512 512" style="enable-background:new 0 0 512 512;" xml:space="preserve">
<g>
	<g>
		<path d="M487,65c-13.785,0-25,11.215-25,25c0,8.164,3.934,15.425,10.005,19.991V135h-432v-25.018C46.07,105.416,50,98.159,50,90
			c0-13.785-11.215-25-25-25S0,76.215,0,90c0,8.164,3.934,15.425,10.005,19.991v336.011h30V385h432v62h30V109.982
			C508.07,105.416,512,98.159,512,90C512,76.215,500.785,65,487,65z M106,355H40.005V165H106V355z M196,355h-60V165h60V355z
			 M286,355h-60V165h60V355z M376,355h-60V165h60V355z M472,355h-66V165h66V355z"/>
	</g>
</g>
<g>
</g>
<g>
</g>
<g>
</g>
<g>
</g>
<g>
</g>
<g>
</g>
<g>
</g>
<g>
</g>
<g>
</g>
<g>
</g>
<g>
</g>
<g>
</g>
<g>
</g>
<g>
</g>
<g>
</g>
</svg>
