<?xml version="1.0" encoding="iso-8859-1"?>
<!-- Generator: Adobe Illustrator 19.0.0, SVG Export Plug-In . SVG Version: 6.00 Build 0)  -->
<svg version="1.1" id="Capa_1" xmlns="http://www.w3.org/2000/svg" xmlns:xlink="http://www.w3.org/1999/xlink" x="0px" y="0px"
	 viewBox="0 0 512.003 512.003" style="enable-background:new 0 0 512.003 512.003;" xml:space="preserve">
<g>
	<g>
		<path d="M367.001,161.001h-15v60h-97.786c15.98-17.006,25.786-39.878,25.786-65c0-52.383-42.617-95-95-95
			c-38.789,0-72.216,23.371-86.957,56.767c-18.19-1.165-34.941-6.883-47.742-16.412c-13.038-9.706-20.238-22.2-20.297-35.195
			c0-0.054-0.004-0.107-0.004-0.161H30H0.001H0c0,0.158,0.006,0.316,0.008,0.474c0.236,52.953,39.868,96.77,91.038,103.597
			c2.914,19.543,11.803,37.16,24.743,50.93h-0.786c-63.411,0-115,51.589-115,115s51.589,115,115,115h252
			c79.953,0,145-65.047,145-145C512.001,226.047,446.955,161.001,367.001,161.001z M185.001,91.001c35.841,0,65,29.159,65,65
			s-29.159,65-65,65s-65-29.159-65-65S149.16,91.001,185.001,91.001z M367.001,421.001h-252c-46.869,0-85-38.131-85-85
			c0-46.869,38.131-85,85-85h267v-59.026c56.352,7.371,100,55.697,100,114.026C482.001,369.412,430.413,421.001,367.001,421.001z"/>
	</g>
</g>
<g>
	<g>
		<circle cx="185" cy="156" r="20"/>
	</g>
</g>
<g>
</g>
<g>
</g>
<g>
</g>
<g>
</g>
<g>
</g>
<g>
</g>
<g>
</g>
<g>
</g>
<g>
</g>
<g>
</g>
<g>
</g>
<g>
</g>
<g>
</g>
<g>
</g>
<g>
</g>
</svg>
