<?xml version="1.0" encoding="iso-8859-1"?>
<!-- Generator: Adobe Illustrator 19.0.0, SVG Export Plug-In . SVG Version: 6.00 Build 0)  -->
<svg version="1.1" id="Capa_1" xmlns="http://www.w3.org/2000/svg" xmlns:xlink="http://www.w3.org/1999/xlink" x="0px" y="0px"
	 viewBox="0 0 512 512" style="enable-background:new 0 0 512 512;" xml:space="preserve">
<g>
	<g>
		<path d="M406,241h-85v-76.737c19.152-17.938,30-42.79,30-69.263c0-52.383-42.617-95-95-95s-95,42.617-95,95
			c0,26.473,10.848,51.324,30,69.263V241h-85c-24.813,0-45,20.187-45,45s20.187,45,45,45h91.324
			c-8.888,6.443-16.704,14.346-23.143,23.493C162.287,371.389,156,391.274,156,412c0,55.14,44.86,100,100,100s100-44.86,100-100
			c0-20.726-6.287-40.612-18.182-57.508c-6.439-9.146-14.255-17.049-23.142-23.492H406c24.813,0,45-20.187,45-45
			S430.813,241,406,241z M256,30c35.841,0,65,29.159,65,65c0,19.811-8.888,38.3-24.384,50.727L291,150.231V241h-70v-90.769
			l-5.616-4.504C199.888,133.3,191,114.811,191,95C191,59.159,220.159,30,256,30z M326,412c0,38.598-31.402,70-70,70
			c-38.598,0-70-31.402-70-70c0-20.93,9.507-40.48,25-53.575V380c0,24.813,20.187,45,45,45s45-20.187,45-45v-21.576
			C316.493,371.52,326,391.069,326,412z M406,301H271v79c0,8.271-6.729,15-15,15s-15-6.729-15-15v-79H106c-8.271,0-15-6.729-15-15
			s6.729-15,15-15h300c8.271,0,15,6.729,15,15S414.271,301,406,301z"/>
	</g>
</g>
<g>
</g>
<g>
</g>
<g>
</g>
<g>
</g>
<g>
</g>
<g>
</g>
<g>
</g>
<g>
</g>
<g>
</g>
<g>
</g>
<g>
</g>
<g>
</g>
<g>
</g>
<g>
</g>
<g>
</g>
</svg>
