<?xml version="1.0" encoding="iso-8859-1"?>
<!-- Generator: Adobe Illustrator 19.0.0, SVG Export Plug-In . SVG Version: 6.00 Build 0)  -->
<svg version="1.1" id="Capa_1" xmlns="http://www.w3.org/2000/svg" xmlns:xlink="http://www.w3.org/1999/xlink" x="0px" y="0px"
	 viewBox="0 0 512 512" style="enable-background:new 0 0 512 512;" xml:space="preserve">
<g>
	<g>
		<path d="M391.529,240.941V0H120.471v240.941H0V512h512V240.941H391.529z M150.588,30.118h210.824v210.823H150.588V30.118z
			 M240.941,481.882H30.118V271.059h210.823V481.882z M481.882,481.882H271.059V271.059h210.824V481.882z"/>
	</g>
</g>
<g>
	<g>
		
			<rect x="215.846" y="95.372" transform="matrix(0.7071 -0.7071 0.7071 0.7071 -20.8519 220.716)" width="80.313" height="80.313"/>
	</g>
</g>
<g>
	<g>
		<circle cx="135.529" cy="376.471" r="50.196"/>
	</g>
</g>
<g>
	<g>
		<polygon points="442.972,361.54 397.021,354.863 376.471,313.224 355.92,354.863 309.969,361.54 343.22,393.952 335.37,439.718 
			376.471,418.11 417.571,439.718 409.721,393.952 		"/>
	</g>
</g>
<g>
</g>
<g>
</g>
<g>
</g>
<g>
</g>
<g>
</g>
<g>
</g>
<g>
</g>
<g>
</g>
<g>
</g>
<g>
</g>
<g>
</g>
<g>
</g>
<g>
</g>
<g>
</g>
<g>
</g>
</svg>
