<?xml version="1.0" encoding="iso-8859-1"?>
<!-- Generator: Adobe Illustrator 19.0.0, SVG Export Plug-In . SVG Version: 6.00 Build 0)  -->
<svg version="1.1" id="Capa_1" xmlns="http://www.w3.org/2000/svg" xmlns:xlink="http://www.w3.org/1999/xlink" x="0px" y="0px"
	 viewBox="0 0 512 512" style="enable-background:new 0 0 512 512;" xml:space="preserve">
<g>
	<g>
		<path d="M417.149,0L300.292,120.699C297.56,81.811,265.071,51,225.5,51c-41.355,0-75,33.645-75,75
			c0,40.348,32.03,73.341,71.998,74.924L183.636,241H135.5c-57.897,0-105,47.103-105,105v84h54.43
			c-11.729,8.13-19.43,21.68-19.43,37c0,24.813,20.187,45,45,45s45-20.187,45-45c0-15.32-7.701-28.87-19.43-37h140.86
			c-11.729,8.13-19.43,21.68-19.43,37c0,24.813,20.187,45,45,45s45-20.187,45-45c0-19.32-12.24-35.831-29.371-42.197
			C360.1,411.047,390.5,371.51,390.5,325V70.6L429.851,30H481.5V0H417.149z M180.5,126c0-24.813,20.187-45,45-45s45,20.187,45,45
			s-20.187,45-45,45S180.5,150.813,180.5,126z M60.5,346c0-41.355,33.645-75,75-75h19.045L60.5,367.984V346z M110.5,482
			c-8.271,0-15-6.729-15-15s6.729-15,15-15s15,6.729,15,15S118.771,482,110.5,482z M302.5,482c-8.271,0-15-6.729-15-15
			s6.729-15,15-15s15,6.729,15,15S310.771,482,302.5,482z M360.5,325c0,41.355-33.645,75-75,75H71.243L360.5,101.704V325z"/>
	</g>
</g>
<g>
</g>
<g>
</g>
<g>
</g>
<g>
</g>
<g>
</g>
<g>
</g>
<g>
</g>
<g>
</g>
<g>
</g>
<g>
</g>
<g>
</g>
<g>
</g>
<g>
</g>
<g>
</g>
<g>
</g>
</svg>
