<?xml version="1.0"?>
<svg xmlns="http://www.w3.org/2000/svg" xmlns:xlink="http://www.w3.org/1999/xlink" version="1.1" id="Capa_1" x="0px" y="0px" viewBox="0 0 512 512" style="enable-background:new 0 0 512 512;" xml:space="preserve" width="512px" height="512px" class=""><g><g>
	<g>
		<path d="M472.345,219.548c-12.839-40.836-39.751-77.572-76.5-104.165c-28.453-20.59-61.049-34.287-95.918-40.519    C303.798,67.768,306,59.637,306,51c0-27.57-22.43-50-50-50s-50,22.43-50,50h30c0-11.028,8.972-20,20-20s20,8.972,20,20    s-8.972,20-20,20c-51.363,0-99.721,15.348-139.845,44.383c-36.748,26.593-63.661,63.329-76.5,104.165    C16.197,227.975,0,250.378,0,276s16.197,48.025,39.655,56.452c12.839,40.836,39.751,77.573,76.5,104.165    c36.194,26.192,79.09,41.24,124.845,43.938V511h30v-30.445c45.756-2.698,88.651-17.746,124.845-43.938    c36.748-26.593,63.661-63.329,76.5-104.165C495.803,324.025,512,301.622,512,276S495.803,227.975,472.345,219.548z M271,448.42    V406h-30v42.42c-17.459-6.192-30-22.865-30-42.42c0-24.813,20.187-45,45-45s45,20.187,45,45    C301,425.555,288.459,442.228,271,448.42z M457.527,305.481l-9.343,1.736l-2.422,9.189    c-15.54,58.964-62.722,104.689-123.274,124.236C327.913,430.272,331,418.493,331,406c0-41.355-33.645-75-75-75    c-41.355,0-75,33.645-75,75c0,12.493,3.087,24.272,8.513,34.642C128.96,421.095,81.778,375.37,66.238,316.406l-2.422-9.189    l-9.343-1.736C40.292,302.847,30,290.448,30,276s10.292-26.847,24.473-29.481l9.343-1.736l2.422-9.189    C87.124,156.347,165.156,101,256,101s168.876,55.347,189.762,134.594l2.422,9.189l9.343,1.736    C471.708,249.153,482,261.552,482,276S471.708,302.847,457.527,305.481z" data-original="#000000" class="active-path" data-old_color="#7A00FF" fill="#FFFFFF"/>
	</g>
</g><g>
	<g>
		<path d="M181,246c0,8.271-6.729,15-15,15s-15-6.729-15-15h-30c0,24.813,20.187,45,45,45s45-20.187,45-45H181z" data-original="#000000" class="active-path" data-old_color="#7A00FF" fill="#FFFFFF"/>
	</g>
</g><g>
	<g>
		<path d="M361,246c0,8.271-6.729,15-15,15s-15-6.729-15-15h-30c0,24.813,20.187,45,45,45s45-20.187,45-45H361z" data-original="#000000" class="active-path" data-old_color="#7A00FF" fill="#FFFFFF"/>
	</g>
</g></g> </svg>
