<?xml version="1.0"?>
<svg xmlns="http://www.w3.org/2000/svg" xmlns:xlink="http://www.w3.org/1999/xlink" version="1.1" id="Capa_1" x="0px" y="0px" viewBox="0 0 512 512" style="enable-background:new 0 0 512 512;" xml:space="preserve" width="512px" height="512px" class=""><g><g>
	<g>
		<path d="M491.333,259.009l18.123-23.915c-35.711-27.063-75.228-48.107-117.451-62.55c-38.973-13.331-79.61-20.779-121.003-22.232    V87.438c17.463-6.193,30.006-22.87,30.006-42.429C301.008,20.191,280.817,0,255.999,0c-24.818,0-45.009,20.191-45.009,45.009    c0,19.559,12.544,36.236,30.006,42.429v62.874c-41.393,1.452-82.029,8.901-121.002,22.232    c-42.223,14.442-81.739,35.487-117.45,62.55l18.123,23.915c19.124-14.493,39.288-27.067,60.296-37.661v79.715H50.956v90.019    h90.019v-90.019h-30.006v-93.261c41.09-16.482,84.867-25.788,130.027-27.476v179.652l-41.477-21.806l10.786,62.891l-45.694,44.54    l63.146,9.175L255.998,512l28.24-57.22l63.148-9.176l-45.696-44.54l10.788-62.891L271,359.978V180.327    c45.16,1.687,88.938,10.993,130.027,27.476V323.37c-20.268,6.387-35.007,25.357-35.007,47.708c0,27.576,22.435,50.01,50.01,50.01    c27.576,0,50.01-22.435,50.01-50.01c0-22.351-14.739-41.321-35.007-47.708V221.348    C452.045,231.941,472.208,244.516,491.333,259.009z M110.97,331.069v30.006H80.963v-30.006H110.97z M272.626,393.023    l-3.176,18.516l13.453,13.113l-18.59,2.702l-8.315,16.846l-8.315-16.846l-18.59-2.702l13.452-13.113l-3.176-18.516l16.628,8.742    L272.626,393.023z M256,60.013c-8.273,0-15.003-6.73-15.003-15.003c0-8.273,6.73-15.003,15.003-15.003    c8.273,0,15.003,6.73,15.003,15.003C271.003,53.282,264.273,60.013,256,60.013z M436.038,371.078    c0,11.03-8.974,20.004-20.004,20.004s-20.004-8.974-20.004-20.004c0-11.03,8.974-20.004,20.004-20.004    S436.038,360.047,436.038,371.078z" data-original="#000000" class="active-path" data-old_color="#000000" fill="#FFFFFF"/>
	</g>
</g></g> </svg>
