<?xml version="1.0"?>
<svg xmlns="http://www.w3.org/2000/svg" xmlns:xlink="http://www.w3.org/1999/xlink" version="1.1" id="Capa_1" x="0px" y="0px" viewBox="0 0 512 512" style="enable-background:new 0 0 512 512;" xml:space="preserve" width="512px" height="512px" class=""><g><g>
	<g>
		<path d="M335,371c-33.084,0-60,26.916-60,60c0,33.084,26.916,60,60,60s60-26.916,60-60S368.084,371,335,371z M335,461    c-16.542,0-30-13.458-30-30s13.458-30,30-30s30,13.458,30,30S351.542,461,335,461z" data-original="#000000" class="active-path" data-old_color="#000000" fill="#FFFFFF"/>
	</g>
</g><g>
	<g>
		<path d="M95,371c-33.084,0-60,26.916-60,60c0,33.084,26.916,60,60,60s60-26.916,60-60S128.084,371,95,371z M95,461    c-16.542,0-30-13.458-30-30s13.458-30,30-30s30,13.458,30,30S111.542,461,95,461z" data-original="#000000" class="active-path" data-old_color="#000000" fill="#FFFFFF"/>
	</g>
</g><g>
	<g>
		<path d="M487,131c-8.161,0-15.421,3.932-19.986,10H445c-24.813,0-45,20.187-45,45v15H210V21h-15    C92.523,21,8.256,100.458,0.571,201H0v170h430V186c0-8.271,6.729-15,15-15h22.014c4.565,6.068,11.825,10,19.986,10    c13.785,0,25-11.215,25-25C512,142.215,500.785,131,487,131z M180,51.676v128.111l-90.531-90.53    C114.485,68.393,145.746,54.775,180,51.676z M68.256,110.469L158.787,201H30.676C33.775,166.746,47.393,135.486,68.256,110.469z     M400,341H30V231h370V341z" data-original="#000000" class="active-path" data-old_color="#000000" fill="#FFFFFF"/>
	</g>
</g></g> </svg>
