<?xml version="1.0"?>
<svg xmlns="http://www.w3.org/2000/svg" xmlns:xlink="http://www.w3.org/1999/xlink" version="1.1" id="Capa_1" x="0px" y="0px" viewBox="0 0 512 512" style="enable-background:new 0 0 512 512;" xml:space="preserve" width="512px" height="512px" class=""><g><g>
	<g>
		<path d="M489.816,22.269c-24.917-24.917-72.764-33.301-106.065,0l-42.426,42.426l10.606,10.606    c14.175,14.175,33.009,21.981,53.033,21.981c3.588,0,7.14-0.251,10.632-0.744c-2.521,17.832,1.364,36.403,11.653,51.955    L149.487,426.385C144.313,390.041,113.003,362,75.252,362c-16.871,0-32.456,5.603-45,15.041V0h-30v437c0,41.355,33.645,75,75,75    c20.52,0,39.135-8.29,52.69-21.688c0.127-0.088,0.245-0.181,0.346-0.281l361.528-361.696    C519.059,99.092,519.059,51.511,489.816,22.269z M75.252,482c-24.813,0-45-20.187-45-45s20.187-45,45-45s45,20.187,45,45    S100.065,482,75.252,482z M468.6,107.124l-19.39,19.399c-7.972-16.726-5.043-37.392,8.786-51.222l-21.213-21.213    c-8.509,8.508-19.809,13.194-31.819,13.194c-6.829,0-13.429-1.515-19.416-4.386l19.415-19.416    c18.385-18.385,47.223-16.417,63.64,0C486.149,61.027,486.148,89.576,468.6,107.124z" data-original="#000000" class="active-path" data-old_color="#000000" fill="#FFFFFF"/>
	</g>
</g></g> </svg>
