<?xml version="1.0"?>
<svg xmlns="http://www.w3.org/2000/svg" xmlns:xlink="http://www.w3.org/1999/xlink" version="1.1" id="Capa_1" x="0px" y="0px" viewBox="0 0 512 512" style="enable-background:new 0 0 512 512;" xml:space="preserve" width="512px" height="512px" class=""><g><g>
	<g>
		<path d="M512,106V76H242v30h30v60h-90V76H92v90H38.787l-4.393,4.394C32.989,171.798,0,205.54,0,271s32.989,99.202,34.394,100.606    L38.787,376H73.51c6.968,34.192,37.272,60,73.491,60c24.508,0,46.305-11.818,60-30.052C220.695,424.182,242.492,436,267,436    s46.305-11.818,60-30.052C340.695,424.182,362.492,436,387,436c36.219,0,66.522-25.808,73.491-60H512V166h-30v-60H512z M392,106    h60v60h-60V106z M302,106h60v60h-60V106z M122,106h30v60h-30V106z M189.42,376c-6.192,17.458-22.865,30-42.42,30    c-24.813,0-45-20.187-45-45s20.187-45,45-45c19.555,0,36.228,12.542,42.42,30H132v30H189.42z M267,406    c-19.555,0-36.228-12.542-42.42-30h84.839C303.228,393.458,286.555,406,267,406z M224.58,346c6.192-17.458,22.865-30,42.42-30    s36.228,12.542,42.42,30H224.58z M387,406c-19.555,0-36.228-12.542-42.42-30H402v-30h-57.42c6.192-17.458,22.865-30,42.42-30    c24.813,0,45,20.187,45,45S411.813,406,387,406z M482,346h-21.509c-6.968-34.192-37.271-60-73.491-60    c-24.508,0-46.305,11.818-60,30.052C313.305,297.818,291.508,286,267,286s-46.305,11.818-60,30.052    C193.305,297.818,171.508,286,147,286c-36.219,0-66.522,25.808-73.491,60H51.991C44.86,336.451,30,311.669,30,271    s14.86-65.451,21.991-75H482V346z" data-original="#000000" class="active-path" data-old_color="#000000" fill="#FFFFFF"/>
	</g>
</g></g> </svg>
